<svg id="Group_4163" data-name="Group 4163" xmlns="http://www.w3.org/2000/svg" xmlns:xlink="http://www.w3.org/1999/xlink" width="72" height="43.406" viewBox="0 0 72 43.406">
  <defs>
    <clipPath id="clip-path">
      <rect id="Rectangle_1899" data-name="Rectangle 1899" width="72" height="43.406" fill="none"/>
    </clipPath>
  </defs>
  <path id="Path_5835" data-name="Path 5835" d="M0,204.25v10.156H8.24v-2.394H2.786V210.4H7.66v-2.22H2.786v-1.538H8.168V204.25Z" transform="translate(0 -187.267)" fill="#fff"/>
  <g id="Group_4162" data-name="Group 4162">
    <g id="Group_4161" data-name="Group 4161" clip-path="url(#clip-path)">
      <path id="Path_5836" data-name="Path 5836" d="M114.8,209.952v-5.7h2.858v5.644c0,1.465.74,2.162,1.872,2.162s1.871-.667,1.871-2.089V204.25h2.858v5.629c0,3.279-1.872,4.715-4.759,4.715s-4.7-1.465-4.7-4.643" transform="translate(-105.259 -187.267)" fill="#fff"/>
      <path id="Path_5837" data-name="Path 5837" d="M248.628,204.25h2.626l4.178,5.368V204.25h2.786v10.156h-2.466l-4.338-5.571v5.571h-2.786Z" transform="translate(-227.955 -187.267)" fill="#fff"/>
      <path id="Path_5838" data-name="Path 5838" d="M381.4,207.117v-.029a5.473,5.473,0,0,1,10.939-.029v.029a5.473,5.473,0,0,1-10.939.029m8.066,0v-.029a2.639,2.639,0,0,0-2.611-2.742,2.588,2.588,0,0,0-2.568,2.713v.029a2.636,2.636,0,0,0,2.6,2.742,2.591,2.591,0,0,0,2.583-2.713" transform="translate(-349.689 -185.027)" fill="#fff"/>
      <path id="Path_5839" data-name="Path 5839" d="M530.579,204.25h2.974l2.423,3.932,2.423-3.932h2.974v10.156h-2.8v-5.832l-2.6,3.975h-.058l-2.583-3.946v5.8h-2.756Z" transform="translate(-486.463 -187.267)" fill="#fff"/>
      <rect id="Rectangle_1898" data-name="Rectangle 1898" width="2.829" height="10.156" transform="translate(56.767 16.983)" fill="#fff"/>
      <path id="Path_5840" data-name="Path 5840" d="M733.629,203.377h2.713l4.323,10.228h-3.018l-.74-1.813h-3.917l-.725,1.813h-2.96ZM736.1,209.6l-1.132-2.887-1.146,2.887Z" transform="translate(-668.666 -186.467)" fill="#fff"/>
      <path id="Path_5841" data-name="Path 5841" d="M252.739,10.9h-1.247V5.443l-16.7-4.158-17.124,4.23V10.9h-1.247V4.538L234.793,0l.15.037,17.8,4.431Z" transform="translate(-198.426)" fill="#fff"/>
      <path id="Path_5842" data-name="Path 5842" d="M234.367,401.9l-17.947-4.468V391h1.247v5.452l16.7,4.158,17.124-4.23V391h1.247v6.357Z" transform="translate(-198.426 -358.49)" fill="#fff"/>
    </g>
  </g>
</svg>
