<svg xmlns="http://www.w3.org/2000/svg" width="743.639" height="749.597" viewBox="0 0 743.639 749.597">
  <g id="Group_4065" data-name="Group 4065" transform="translate(0.739 1.156)">
    <path id="Path_5470" data-name="Path 5470" d="M78.891,543.74.834,690.2H741.225L658.693,516.175,466.259,562.342,193.814,509.211Z" transform="translate(0.094 57.241)" fill="#003354" stroke="#2cb7ff" stroke-width="2"/>
    <path id="Path_5472" data-name="Path 5472" d="M71,558.22l78.03-146.408,45.72,62.2,33.578-93.623L337.29,443.537l112.887-55.914L602.64,429.1l48.167,101.555L458.37,576.822,185.926,523.69Z" transform="translate(7.981 42.76)" fill="#00538f" stroke="#2cb7ff" stroke-width="2"/>
    <path id="Path_5474" data-name="Path 5474" d="M239.847,314.688l-27.414,76.467L321.392,454.3l112.887-55.914,152.464,41.478-61.463-129.6L458.555,329.7l-160.1-45.046Z" transform="translate(23.88 31.999)" fill="#24ace1" stroke="#2cb7ff" stroke-width="2"/>
    <path id="Path_5476" data-name="Path 5476" d="M476.316,223.217l46.193,97.4-66.725,19.436-160.1-45.044-58.608,30.02L284.56,192.6l45.408,29.513L407.539,192.6Z" transform="translate(26.65 21.651)" fill="#59c1ce" stroke="#2cb7ff" stroke-width="2"/>
    <path id="Path_5478" data-name="Path 5478" d="M356.073,1.3,279.761,214.116l45.409,29.516,77.571-29.516,68.777,30.6Z" transform="translate(31.448 0.146)" fill="#69bea1" stroke="#2cb7ff" stroke-width="2"/>
  </g>
</svg>
